<svg xmlns="http://www.w3.org/2000/svg" viewBox="0 0 300 24"><defs><style>.a,.b{fill:#fff;}.a{opacity:0;}</style></defs><title>Asset 3</title><rect class="a" width="300" height="24"/><path class="b" d="M23.55,6.21V7.48H18v3.81h4.46V12.5H18v3.91h5.5v1.26H16.49V6.21Z"/><path class="b" d="M26.89,6.26a.8.8,0,0,1,.23.21l6.64,8.64c0-.14,0-.27,0-.4s0-.26,0-.38V6.21h1.36V17.68H34.3a.67.67,0,0,1-.31-.06.78.78,0,0,1-.24-.22L27.11,8.76c0,.13,0,.26,0,.39s0,.25,0,.35v8.17H25.78V6.21h.8A.7.7,0,0,1,26.89,6.26Z"/><path class="b" d="M36.55,6.21h1.24a.52.52,0,0,1,.34.1.65.65,0,0,1,.19.26l3.24,8.09a5.36,5.36,0,0,1,.2.59q.09.32.18.66.07-.34.16-.66a4.83,4.83,0,0,1,.2-.59l3.22-8.09a.67.67,0,0,1,.19-.25A.5.5,0,0,1,46,6.21H47.3L42.62,17.68h-1.4Z"/><path class="b" d="M52.57,3.42,50.22,5.15a.9.9,0,0,1-.24.13.94.94,0,0,1-.27,0H48.6l1.69-1.62.15-.13.14-.08.16,0h1.83Zm-2,14.26H49V6.21H50.6Z"/><path class="b" d="M64.32,11.95a6.63,6.63,0,0,1-.41,2.36,5.42,5.42,0,0,1-1.15,1.85A5.14,5.14,0,0,1,61,17.37a6.42,6.42,0,0,1-4.61,0,5.15,5.15,0,0,1-1.78-1.2,5.42,5.42,0,0,1-1.15-1.85A6.63,6.63,0,0,1,53,11.95a6.63,6.63,0,0,1,.41-2.36,5.47,5.47,0,0,1,1.15-1.86,5.19,5.19,0,0,1,1.78-1.21,6.37,6.37,0,0,1,4.61,0,5.17,5.17,0,0,1,1.79,1.21,5.47,5.47,0,0,1,1.15,1.86A6.63,6.63,0,0,1,64.32,11.95Zm-1.59,0a5.84,5.84,0,0,0-.29-1.9,4,4,0,0,0-.82-1.42,3.53,3.53,0,0,0-1.28-.89,4.66,4.66,0,0,0-3.35,0,3.57,3.57,0,0,0-1.28.89,4,4,0,0,0-.82,1.42,5.84,5.84,0,0,0-.29,1.9,5.8,5.8,0,0,0,.29,1.89,4,4,0,0,0,.82,1.42,3.53,3.53,0,0,0,1.28.89,4.71,4.71,0,0,0,3.35,0,3.49,3.49,0,0,0,1.28-.89,4,4,0,0,0,.82-1.42A5.8,5.8,0,0,0,62.73,11.95Z"/><path class="b" d="M72.31,8a.61.61,0,0,1-.15.18.34.34,0,0,1-.21.06.55.55,0,0,1-.32-.14,5.09,5.09,0,0,0-.46-.3,3.73,3.73,0,0,0-.66-.3,2.86,2.86,0,0,0-.94-.14,2.78,2.78,0,0,0-.92.14,2,2,0,0,0-.67.38,1.55,1.55,0,0,0-.4.56,1.79,1.79,0,0,0-.14.7,1.29,1.29,0,0,0,.24.8,2,2,0,0,0,.62.54,4.78,4.78,0,0,0,.88.39l1,.34q.52.18,1,.4a3.56,3.56,0,0,1,.88.56,2.56,2.56,0,0,1,.62.82,2.75,2.75,0,0,1,.24,1.2,3.87,3.87,0,0,1-.26,1.41,3.26,3.26,0,0,1-.75,1.15,3.51,3.51,0,0,1-1.21.77,4.45,4.45,0,0,1-1.63.28,5,5,0,0,1-2-.4,4.75,4.75,0,0,1-1.56-1.09l.45-.74a.59.59,0,0,1,.16-.15.37.37,0,0,1,.2-.06.63.63,0,0,1,.38.18,6.61,6.61,0,0,0,.54.4,4.16,4.16,0,0,0,.78.4,3.1,3.1,0,0,0,1.12.18,3,3,0,0,0,1-.15,2.07,2.07,0,0,0,.73-.43,1.85,1.85,0,0,0,.46-.66,2.19,2.19,0,0,0,.16-.86,1.44,1.44,0,0,0-.24-.85,2,2,0,0,0-.62-.56,4.32,4.32,0,0,0-.88-.38l-1-.32a10.12,10.12,0,0,1-1-.38,3.27,3.27,0,0,1-.88-.56,2.57,2.57,0,0,1-.62-.86A3.06,3.06,0,0,1,66,9.24a3,3,0,0,1,.92-2.18A3.32,3.32,0,0,1,68,6.35a4.07,4.07,0,0,1,1.52-.26,4.86,4.86,0,0,1,1.75.3,4,4,0,0,1,1.38.88Z"/><path class="b" d="M87.44,17.68h-1.2a.52.52,0,0,1-.34-.1.64.64,0,0,1-.19-.26l-1.07-2.77H79.5l-1.07,2.77a.63.63,0,0,1-.19.26.51.51,0,0,1-.34.11H76.7L81.28,6.21h1.58Zm-7.51-4.26h4.28l-1.8-4.66a8.63,8.63,0,0,1-.34-1.08c-.06.22-.12.42-.17.6s-.11.35-.16.48Z"/><path class="b" d="M99.78,6.21v1.3h-3.7V17.68H94.53V7.52H90.81V6.21Z"/><path class="b" d="M111.28,11.95a6.61,6.61,0,0,1-.41,2.36,5.41,5.41,0,0,1-1.15,1.85,5.15,5.15,0,0,1-1.79,1.2,6.42,6.42,0,0,1-4.61,0,5.15,5.15,0,0,1-1.78-1.2,5.42,5.42,0,0,1-1.15-1.85,6.63,6.63,0,0,1-.41-2.36,6.63,6.63,0,0,1,.41-2.36,5.47,5.47,0,0,1,1.15-1.86,5.19,5.19,0,0,1,1.78-1.21,6.38,6.38,0,0,1,4.61,0,5.18,5.18,0,0,1,1.79,1.21,5.46,5.46,0,0,1,1.15,1.86A6.61,6.61,0,0,1,111.28,11.95Zm-1.59,0a5.84,5.84,0,0,0-.29-1.9,4,4,0,0,0-.82-1.42,3.54,3.54,0,0,0-1.28-.89,4.66,4.66,0,0,0-3.35,0,3.58,3.58,0,0,0-1.28.89,4,4,0,0,0-.82,1.42,5.82,5.82,0,0,0-.29,1.9,5.78,5.78,0,0,0,.29,1.89,4,4,0,0,0,.82,1.42,3.53,3.53,0,0,0,1.28.89,4.71,4.71,0,0,0,3.35,0,3.49,3.49,0,0,0,1.28-.89,4,4,0,0,0,.82-1.42A5.8,5.8,0,0,0,109.69,11.95Z"/><path class="b" d="M123.34,11.95a6.45,6.45,0,0,1-.41,2.34,5.19,5.19,0,0,1-1.15,1.81A5.12,5.12,0,0,1,120,17.26a6.2,6.2,0,0,1-2.3.41H113.4V6.21h4.29a6.2,6.2,0,0,1,2.3.41,5.09,5.09,0,0,1,1.78,1.17,5.23,5.23,0,0,1,1.15,1.81A6.44,6.44,0,0,1,123.34,11.95Zm-1.59,0a5.77,5.77,0,0,0-.29-1.89,4,4,0,0,0-.82-1.41,3.47,3.47,0,0,0-1.28-.88,4.42,4.42,0,0,0-1.67-.3H115v9h2.73a4.42,4.42,0,0,0,1.67-.3,3.49,3.49,0,0,0,1.28-.88,3.94,3.94,0,0,0,.82-1.4A5.77,5.77,0,0,0,121.74,11.95Z"/><path class="b" d="M136.1,11.95a6.61,6.61,0,0,1-.41,2.36,5.41,5.41,0,0,1-1.15,1.85,5.15,5.15,0,0,1-1.79,1.2,6.42,6.42,0,0,1-4.61,0,5.15,5.15,0,0,1-1.78-1.2,5.42,5.42,0,0,1-1.15-1.85,6.63,6.63,0,0,1-.41-2.36,6.63,6.63,0,0,1,.41-2.36,5.47,5.47,0,0,1,1.15-1.86,5.19,5.19,0,0,1,1.78-1.21,6.38,6.38,0,0,1,4.61,0,5.18,5.18,0,0,1,1.79,1.21,5.46,5.46,0,0,1,1.15,1.86A6.61,6.61,0,0,1,136.1,11.95Zm-1.59,0a5.84,5.84,0,0,0-.29-1.9,4,4,0,0,0-.82-1.42,3.54,3.54,0,0,0-1.28-.89,4.66,4.66,0,0,0-3.35,0,3.58,3.58,0,0,0-1.28.89,4,4,0,0,0-.82,1.42,5.82,5.82,0,0,0-.29,1.9,5.78,5.78,0,0,0,.29,1.89,4,4,0,0,0,.82,1.42,3.53,3.53,0,0,0,1.28.89,4.71,4.71,0,0,0,3.35,0,3.49,3.49,0,0,0,1.28-.89,4,4,0,0,0,.82-1.42A5.8,5.8,0,0,0,134.5,11.95Z"/><path class="b" d="M148.37,6.21V7.48h-5.5v3.81h4.46V12.5h-4.46v3.91h5.5v1.26H141.3V6.21Z"/><path class="b" d="M152.15,16.37h5v1.3H150.6V6.21h1.55Z"/><path class="b" d="M163.61,13.39v4.29h-1.54V6.21h3.38a6.35,6.35,0,0,1,1.89.25,3.64,3.64,0,0,1,1.33.72,2.9,2.9,0,0,1,.79,1.12,4,4,0,0,1,.26,1.46,3.73,3.73,0,0,1-.28,1.46,3.15,3.15,0,0,1-.82,1.14,3.81,3.81,0,0,1-1.34.75,5.76,5.76,0,0,1-1.83.27Zm0-1.23h1.84a3.58,3.58,0,0,0,1.17-.18,2.41,2.41,0,0,0,.85-.49,2,2,0,0,0,.52-.76,2.59,2.59,0,0,0,.18-1,2.2,2.2,0,0,0-.68-1.71,3,3,0,0,0-2-.62h-1.84Z"/><path class="b" d="M180,17.68h-1.2a.52.52,0,0,1-.34-.1.64.64,0,0,1-.19-.26l-1.07-2.77h-5.14L171,17.31a.62.62,0,0,1-.19.26.51.51,0,0,1-.34.11h-1.2l4.58-11.46h1.58Zm-7.51-4.26h4.28L175,8.76a8.63,8.63,0,0,1-.34-1.08q-.09.33-.17.6t-.16.48Z"/><path class="b" d="M185.27,3.42l-2.35,1.73a.89.89,0,0,1-.24.13,1,1,0,0,1-.27,0h-1.1L183,3.68l.15-.13.14-.08.16,0h1.83Zm-2,14.26h-1.55V6.21h1.55Z"/><path class="b" d="M192.25,8a.62.62,0,0,1-.15.18.34.34,0,0,1-.21.06.55.55,0,0,1-.32-.14,5,5,0,0,0-.46-.3,3.73,3.73,0,0,0-.66-.3,2.85,2.85,0,0,0-.94-.14,2.78,2.78,0,0,0-.92.14,1.94,1.94,0,0,0-.67.38,1.56,1.56,0,0,0-.4.56,1.79,1.79,0,0,0-.14.7,1.29,1.29,0,0,0,.24.8,2,2,0,0,0,.62.54,4.78,4.78,0,0,0,.88.39l1,.34q.52.18,1,.4a3.55,3.55,0,0,1,.88.56,2.53,2.53,0,0,1,.62.82,2.75,2.75,0,0,1,.24,1.2,3.87,3.87,0,0,1-.26,1.41,3.24,3.24,0,0,1-.75,1.15,3.5,3.5,0,0,1-1.21.77,4.44,4.44,0,0,1-1.63.28,5,5,0,0,1-2-.4,4.76,4.76,0,0,1-1.56-1.09l.45-.74a.59.59,0,0,1,.16-.15.36.36,0,0,1,.2-.06.64.64,0,0,1,.38.18,6.45,6.45,0,0,0,.54.4,4.1,4.1,0,0,0,.78.4,3.1,3.1,0,0,0,1.12.18,3,3,0,0,0,1-.15,2.09,2.09,0,0,0,.73-.43,1.87,1.87,0,0,0,.46-.66,2.21,2.21,0,0,0,.16-.86,1.44,1.44,0,0,0-.24-.85,2,2,0,0,0-.62-.56,4.32,4.32,0,0,0-.88-.38l-1-.32a10.11,10.11,0,0,1-1-.38,3.27,3.27,0,0,1-.88-.56,2.55,2.55,0,0,1-.62-.86,3.06,3.06,0,0,1-.24-1.28,3.06,3.06,0,0,1,.92-2.18,3.32,3.32,0,0,1,1.11-.7,4.06,4.06,0,0,1,1.52-.26,4.86,4.86,0,0,1,1.75.3,4,4,0,0,1,1.38.88Z"/><path class="b" d="M203.92,8.21a.6.6,0,0,1-.2.25.52.52,0,0,1-.28.07.7.7,0,0,1-.36-.12l-.47-.28a3.82,3.82,0,0,0-.64-.28,2.66,2.66,0,0,0-.86-.12,2.52,2.52,0,0,0-.78.11,1.65,1.65,0,0,0-.56.3,1.21,1.21,0,0,0-.34.46,1.52,1.52,0,0,0-.11.59,1,1,0,0,0,.23.68,1.91,1.91,0,0,0,.6.46,5.54,5.54,0,0,0,.86.34l1,.32a9.36,9.36,0,0,1,1,.4,3.4,3.4,0,0,1,.86.58,2.63,2.63,0,0,1,.6.85,3,3,0,0,1,.23,1.22,4,4,0,0,1-.27,1.47,3.38,3.38,0,0,1-.78,1.19,3.69,3.69,0,0,1-1.26.8,4.64,4.64,0,0,1-1.7.29,5.51,5.51,0,0,1-1.09-.11,5.72,5.72,0,0,1-1-.31,5.33,5.33,0,0,1-.92-.48,4.5,4.5,0,0,1-.76-.62l.62-1a.79.79,0,0,1,.21-.19A.52.52,0,0,1,198,15a.76.76,0,0,1,.43.16l.55.36a4.23,4.23,0,0,0,.74.36,2.87,2.87,0,0,0,1,.16,2.11,2.11,0,0,0,1.42-.44,1.57,1.57,0,0,0,.5-1.25,1.16,1.16,0,0,0-.23-.74,1.83,1.83,0,0,0-.6-.48,4.51,4.51,0,0,0-.86-.33l-1-.3a8.37,8.37,0,0,1-1-.38,3.16,3.16,0,0,1-.86-.58,2.64,2.64,0,0,1-.6-.9,3.42,3.42,0,0,1-.23-1.33,3.18,3.18,0,0,1,1-2.3,3.63,3.63,0,0,1,1.19-.74A4.33,4.33,0,0,1,201.09,6,5.39,5.39,0,0,1,203,6.3a4.28,4.28,0,0,1,1.47.9Z"/><path class="b" d="M208.73,17.68h-2.16V6.11h2.16Z"/><path class="b" d="M212.69,6.12a.56.56,0,0,1,.17,0,.59.59,0,0,1,.15.1l.16.18,6.07,7.74q0-.28,0-.55t0-.5v-7h1.9V17.68H220a1,1,0,0,1-.42-.08,1,1,0,0,1-.33-.29l-6-7.7c0,.17,0,.34,0,.51s0,.32,0,.46v7.1h-1.9V6.11h1.37Z"/><path class="b" d="M234.46,14.95a.4.4,0,0,1,.3.14l.85.92a4.66,4.66,0,0,1-1.73,1.34,6,6,0,0,1-2.47.46,5.83,5.83,0,0,1-2.32-.44,5.1,5.1,0,0,1-1.76-1.22,5.36,5.36,0,0,1-1.12-1.87,7,7,0,0,1-.39-2.38,6.39,6.39,0,0,1,.43-2.39,5.39,5.39,0,0,1,3.09-3.09A6.45,6.45,0,0,1,231.77,6a5.7,5.7,0,0,1,2.25.41,5.28,5.28,0,0,1,1.65,1.09l-.72,1a.66.66,0,0,1-.16.17.47.47,0,0,1-.28.07.63.63,0,0,1-.38-.14,4.76,4.76,0,0,0-.49-.31,4,4,0,0,0-.75-.31,4.33,4.33,0,0,0-2.65.14,3.33,3.33,0,0,0-1.18.81,3.75,3.75,0,0,0-.77,1.28,4.94,4.94,0,0,0-.28,1.7,5.08,5.08,0,0,0,.28,1.74,3.83,3.83,0,0,0,.75,1.28,3.19,3.19,0,0,0,1.11.8,3.43,3.43,0,0,0,1.38.28,6,6,0,0,0,.8,0,3.37,3.37,0,0,0,.66-.15,2.9,2.9,0,0,0,.57-.27,3.56,3.56,0,0,0,.53-.4.76.76,0,0,1,.17-.12A.43.43,0,0,1,234.46,14.95Z"/><path class="b" d="M248.33,11.89a6.4,6.4,0,0,1-.42,2.36,5.58,5.58,0,0,1-1.19,1.88,5.41,5.41,0,0,1-1.85,1.24,6.68,6.68,0,0,1-4.79,0,5.43,5.43,0,0,1-1.86-1.24,5.54,5.54,0,0,1-1.2-1.88,6.42,6.42,0,0,1-.42-2.36A6.42,6.42,0,0,1,237,9.54a5.55,5.55,0,0,1,1.2-1.88,5.43,5.43,0,0,1,1.86-1.24,6.27,6.27,0,0,1,2.4-.44,6.19,6.19,0,0,1,2.39.45,5.39,5.39,0,0,1,3,3.11A6.4,6.4,0,0,1,248.33,11.89Zm-2.21,0a5.39,5.39,0,0,0-.25-1.71,3.61,3.61,0,0,0-.72-1.28A3.11,3.11,0,0,0,244,8.09a4.3,4.3,0,0,0-3.05,0,3.15,3.15,0,0,0-1.16.81,3.63,3.63,0,0,0-.73,1.28,5.31,5.31,0,0,0-.26,1.71,5.3,5.3,0,0,0,.26,1.71,3.58,3.58,0,0,0,.73,1.28,3.17,3.17,0,0,0,1.16.8,4.29,4.29,0,0,0,3.05,0,3.13,3.13,0,0,0,1.15-.8,3.57,3.57,0,0,0,.72-1.28A5.39,5.39,0,0,0,246.13,11.89Z"/><path class="b" d="M256.23,8.21a.6.6,0,0,1-.2.25.52.52,0,0,1-.28.07.7.7,0,0,1-.36-.12l-.47-.28a3.82,3.82,0,0,0-.64-.28,2.66,2.66,0,0,0-.86-.12,2.52,2.52,0,0,0-.78.11,1.65,1.65,0,0,0-.56.3,1.21,1.21,0,0,0-.34.46,1.52,1.52,0,0,0-.11.59,1,1,0,0,0,.23.68,1.91,1.91,0,0,0,.6.46,5.54,5.54,0,0,0,.86.34l1,.32a9.36,9.36,0,0,1,1,.4,3.4,3.4,0,0,1,.86.58,2.63,2.63,0,0,1,.6.85,3,3,0,0,1,.23,1.22,4,4,0,0,1-.27,1.47,3.38,3.38,0,0,1-.78,1.19,3.69,3.69,0,0,1-1.26.8,4.64,4.64,0,0,1-1.7.29,5.51,5.51,0,0,1-1.09-.11,5.72,5.72,0,0,1-1-.31,5.33,5.33,0,0,1-.92-.48,4.5,4.5,0,0,1-.76-.62l.62-1a.79.79,0,0,1,.21-.19.52.52,0,0,1,.28-.08.76.76,0,0,1,.43.16l.55.36a4.23,4.23,0,0,0,.74.36,2.87,2.87,0,0,0,1,.16,2.11,2.11,0,0,0,1.42-.44,1.57,1.57,0,0,0,.5-1.25,1.16,1.16,0,0,0-.23-.74,1.83,1.83,0,0,0-.6-.48,4.51,4.51,0,0,0-.86-.33l-1-.3a8.37,8.37,0,0,1-1-.38,3.16,3.16,0,0,1-.86-.58,2.64,2.64,0,0,1-.6-.9,3.42,3.42,0,0,1-.23-1.33,3.18,3.18,0,0,1,1-2.3,3.63,3.63,0,0,1,1.19-.74A4.33,4.33,0,0,1,253.4,6a5.39,5.39,0,0,1,1.89.32,4.28,4.28,0,0,1,1.47.9Z"/><path class="b" d="M266.77,6.11V7.88h-3.48v9.8h-2.15V7.88h-3.5V6.11Z"/><path class="b" d="M278.61,11.89a6.4,6.4,0,0,1-.42,2.36A5.58,5.58,0,0,1,277,16.12a5.41,5.41,0,0,1-1.85,1.24,6.68,6.68,0,0,1-4.79,0,5.43,5.43,0,0,1-1.86-1.24,5.54,5.54,0,0,1-1.2-1.88,6.42,6.42,0,0,1-.42-2.36,6.42,6.42,0,0,1,.42-2.36,5.55,5.55,0,0,1,1.2-1.88,5.43,5.43,0,0,1,1.86-1.24,6.27,6.27,0,0,1,2.4-.44,6.19,6.19,0,0,1,2.39.45,5.39,5.39,0,0,1,3,3.11A6.4,6.4,0,0,1,278.61,11.89Zm-2.21,0a5.39,5.39,0,0,0-.25-1.71,3.61,3.61,0,0,0-.72-1.28,3.11,3.11,0,0,0-1.15-.81,4.3,4.3,0,0,0-3.05,0,3.15,3.15,0,0,0-1.16.81,3.63,3.63,0,0,0-.73,1.28,5.31,5.31,0,0,0-.26,1.71,5.3,5.3,0,0,0,.26,1.71,3.58,3.58,0,0,0,.73,1.28,3.17,3.17,0,0,0,1.16.8,4.29,4.29,0,0,0,3.05,0,3.13,3.13,0,0,0,1.15-.8,3.57,3.57,0,0,0,.72-1.28A5.39,5.39,0,0,0,276.4,11.89Z"/><path class="b" d="M280.81,16.59a1.23,1.23,0,0,1,.09-.47,1.13,1.13,0,0,1,.26-.38,1.26,1.26,0,0,1,.39-.26,1.2,1.2,0,0,1,.48-.1,1.19,1.19,0,0,1,.47.1,1.18,1.18,0,0,1,.64.64,1.22,1.22,0,0,1,0,.95,1.24,1.24,0,0,1-.26.38,1.16,1.16,0,0,1-.38.25,1.24,1.24,0,0,1-.47.09,1.25,1.25,0,0,1-.48-.09,1.21,1.21,0,0,1-.39-.25,1.14,1.14,0,0,1-.26-.38A1.22,1.22,0,0,1,280.81,16.59ZM283,6.11v4.58a13.72,13.72,0,0,1-.07,1.43q-.07.7-.19,1.48h-1.34q-.12-.78-.19-1.48a14,14,0,0,1-.07-1.43V6.11Z"/></svg>