<svg xmlns="http://www.w3.org/2000/svg" viewBox="0 0 240 32"><defs><style>.a{opacity:0;}</style></defs><title>logo</title><rect class="a" width="240" height="32"/><path d="M26.57,25.16a10.55,10.55,0,0,1-1.8,2,15.36,15.36,0,0,1-2.71,1.93,16.64,16.64,0,0,1-3.42,1.45,13.5,13.5,0,0,1-3.95.56A15.21,15.21,0,0,1,8.75,30a13.78,13.78,0,0,1-4.64-3.14,14.34,14.34,0,0,1-3-4.75,16,16,0,0,1-1.09-6,16.12,16.12,0,0,1,1.09-5.94A14.8,14.8,0,0,1,4.14,5.36,14.53,14.53,0,0,1,14.87.86a15.68,15.68,0,0,1,3.9.45A14.31,14.31,0,0,1,22,2.54a12.21,12.21,0,0,1,2.58,1.84,15.84,15.84,0,0,1,2,2.27l-3.86,3.42a12,12,0,0,0-3.23-3.21,8.23,8.23,0,0,0-4.61-1.21,8.39,8.39,0,0,0-3.81.85A9,9,0,0,0,8.17,8.76a9.84,9.84,0,0,0-1.82,3.29,12.45,12.45,0,0,0-.63,4,11.85,11.85,0,0,0,.63,3.9,9.48,9.48,0,0,0,1.8,3.16,8.59,8.59,0,0,0,2.8,2.12A8.33,8.33,0,0,0,14.6,26a10.24,10.24,0,0,0,3.18-.43,8.42,8.42,0,0,0,3.81-2.45q.63-.72,1.15-1.23Z"/><path d="M30.85,1.55h5.46V13.16H50.66V1.55h5.46V30.45H50.66V18H36.31V30.45H30.85Z"/><path d="M75.58,31.23A14.59,14.59,0,0,1,69.69,30a15,15,0,0,1-4.77-3.27,15.38,15.38,0,0,1-3.21-4.85A15.13,15.13,0,0,1,60.54,16,15.13,15.13,0,0,1,61.72,10,15.37,15.37,0,0,1,64.9,5.21,14.91,14.91,0,0,1,69.67,2,14.76,14.76,0,0,1,75.58.77,14.59,14.59,0,0,1,81.48,2a15.19,15.19,0,0,1,9.14,14,15.09,15.09,0,0,1-1.17,5.94,15.41,15.41,0,0,1-3.21,4.85A15,15,0,0,1,81.48,30,14.59,14.59,0,0,1,75.58,31.23Zm0-5.16A8.8,8.8,0,0,0,82.39,23a10,10,0,0,0,1.86-3.27,12.12,12.12,0,0,0,0-7.82A9.8,9.8,0,0,0,82.39,8.7a8.72,8.72,0,0,0-2.95-2.19,9.7,9.7,0,0,0-7.73,0A8.76,8.76,0,0,0,68.78,8.7a9.81,9.81,0,0,0-1.86,3.23,12.08,12.08,0,0,0,0,7.82A10,10,0,0,0,68.78,23a8.71,8.71,0,0,0,6.8,3.06Z"/><path d="M121,25.16a10.59,10.59,0,0,1-1.8,2,15.53,15.53,0,0,1-2.71,1.93,16.54,16.54,0,0,1-3.43,1.45,13.5,13.5,0,0,1-3.94.56A15.21,15.21,0,0,1,103.19,30a13.81,13.81,0,0,1-4.64-3.14,14.42,14.42,0,0,1-3-4.75,16.05,16.05,0,0,1-1.09-6,16.15,16.15,0,0,1,1.09-5.94,14.84,14.84,0,0,1,3.05-4.86A14.53,14.53,0,0,1,109.3.86a15.74,15.74,0,0,1,3.9.45,14.41,14.41,0,0,1,3.23,1.23A12.2,12.2,0,0,1,119,4.39a15.75,15.75,0,0,1,2,2.27l-3.86,3.42a12,12,0,0,0-3.23-3.21,8.21,8.21,0,0,0-4.61-1.21,8.4,8.4,0,0,0-3.81.85,9,9,0,0,0-2.88,2.25,9.85,9.85,0,0,0-1.82,3.29,12.44,12.44,0,0,0-.63,4,11.84,11.84,0,0,0,.63,3.9,9.46,9.46,0,0,0,1.8,3.16,8.56,8.56,0,0,0,2.79,2.12A8.34,8.34,0,0,0,109,26a10.27,10.27,0,0,0,3.19-.43A8.42,8.42,0,0,0,116,23.11q.63-.72,1.15-1.23Z"/><path d="M125,1.55h5.46V13.16h14.34V1.55h5.46V30.45h-5.46V18H130.49V30.45H125Z"/><path d="M164.51,1.55h5.63l11,28.91H175l-2.51-7.32H161.78l-2.51,7.32h-5.72ZM171,18.62,167.15,7.4l-3.86,11.22Z"/><path d="M184.36,1.55h5.5l14,20.54V1.55h5.33V30.45h-5.37L189.69,9.65v20.8h-5.33Z"/><path d="M223.4,1.55H229l11,28.91h-6.07l-2.51-7.32H220.67l-2.51,7.32h-5.72Zm6.46,17.07L226,7.4l-3.86,11.22Z"/></svg>