<svg xmlns="http://www.w3.org/2000/svg" viewBox="0 0 60 20"><defs><style>.a{fill:#ff187b;opacity:0;}.b{fill:#000222;}</style></defs><title>icons_1</title><rect class="a" width="20" height="20"/><path class="b" d="M3.12,7.27c0,3.8,6.88,12.34,6.88,12.34s6.88-8.54,6.88-12.34a6.88,6.88,0,0,0-13.77,0Zm8.4,0A1.52,1.52,0,1,1,10,5.75,1.52,1.52,0,0,1,11.52,7.27Z"/><rect class="a" x="20" width="20" height="20"/><path class="b" d="M37.51,13.07a15.06,15.06,0,0,1-3.43-.38.35.35,0,0,0-.43.23l-.42,1.41a13.43,13.43,0,0,1-7.37-6.88l1.41-.59a.35.35,0,0,0,.19-.45,9.75,9.75,0,0,1-.8-3.64.35.35,0,0,0-.35-.35H22.49a.35.35,0,0,0-.35.35,14,14,0,0,0,1,5.07.34.34,0,0,0,0,.09l.06.13,0,.08,0,.08c1.2,2.56,4,7,9.46,8.7h0a36.22,36.22,0,0,0,4.66.64.35.35,0,0,0,.35-.35V13.42A.35.35,0,0,0,37.51,13.07Z"/><rect class="a" x="40" width="20" height="20"/><path class="b" d="M50,18.49A8.49,8.49,0,1,1,58.49,10,8.5,8.5,0,0,1,50,18.49ZM50,3a7,7,0,1,0,7,7A7,7,0,0,0,50,3Z"/><path class="b" d="M53.6,13.14a.75.75,0,0,1-.35-.09l-3.6-1.88a.75.75,0,0,1-.4-.67V5a.75.75,0,1,1,1.5,0v5l3.19,1.67a.75.75,0,0,1-.35,1.42Z"/></svg>